<svg id="svg" xmlns="http://www.w3.org/2000/svg" xmlns:xlink="http://www.w3.org/1999/xlink" width="400" height="400" viewBox="0, 0, 400,400" version="1.1"><g id="svgg"><path id="path0" d="M51.391 84.729 C 29.786 99.862,29.786 300.138,51.391 315.271 C 71.961 329.679,328.039 329.679,348.609 315.271 C 370.214 300.138,370.214 99.862,348.609 84.729 C 328.039 70.321,71.961 70.321,51.391 84.729 M266.317 144.111 L 198.260 188.151 131.942 144.109 L 65.625 100.067 200.000 100.068 L 334.375 100.070 266.317 144.111 M122.569 165.625 C 196.591 216.876,199.830 216.876,276.471 165.625 C 309.884 143.281,338.690 125.000,340.486 125.000 C 345.071 125.000,344.580 278.064,339.956 290.114 C 334.225 305.050,65.775 305.050,60.044 290.114 C 55.076 277.169,55.103 125.000,60.072 125.000 C 62.175 125.000,90.298 143.281,122.569 165.625 " stroke="none" fill="#000000" fill-rule="evenodd"></path></g></svg>